<svg width="29" height="28" viewBox="0 0 29 28" fill="none" xmlns="http://www.w3.org/2000/svg">
<g clip-path="url(#clip0_59_13919)">
<path d="M14.375 28C22.107 28 28.375 21.732 28.375 14C28.375 6.26801 22.107 0 14.375 0C6.64301 0 0.375 6.26801 0.375 14C0.375 21.732 6.64301 28 14.375 28Z" fill="#F0F0F0"/>
<path d="M14.3744 -0.000793457C9.41041 -0.000793457 5.05018 2.58281 2.5643 6.47853L21.5496 26.0222C25.6371 23.5776 28.3744 19.1083 28.3744 13.9992C28.3744 6.26727 22.1063 -0.000793457 14.3744 -0.000793457Z" fill="#FFB611"/>
<path d="M28.3751 13.999C28.3751 10.3665 26.9916 7.05751 24.7229 4.56934V23.4287C26.9916 20.9405 28.3751 17.6314 28.3751 13.999Z" fill="#0052B4"/>
<path d="M17.8639 26.3515L19.3303 26.3505L19.7827 24.9555L20.2367 26.35L20.9723 26.3495C21.4233 26.1081 21.8595 25.8428 22.2793 25.555L2.81934 6.09509C2.49865 6.563 2.20619 7.05158 1.94319 7.55798L2.11612 8.08911L3.58256 8.08818L2.39672 8.95087L2.85073 10.3454L1.66379 9.48413L0.955865 9.99907C0.578467 11.2665 0.375412 12.609 0.375412 13.999C0.375412 21.731 6.64347 27.999 14.3754 27.999C16.0101 27.999 17.5792 27.7184 19.0375 27.2032L17.8639 26.3515ZM3.49801 13.3904L3.95028 11.9954L2.76345 11.1341L4.2299 11.1331L4.68222 9.7381L5.13623 11.1326L6.60268 11.1316L5.41678 11.9943L5.87079 13.3888L4.68386 12.5276L3.49801 13.3904ZM6.51813 16.4338L6.9704 15.0389L5.78357 14.1775L7.25001 14.1766L7.70233 12.7816L8.15635 14.176L9.62279 14.1751L8.43695 15.0378L8.89097 16.4323L7.70403 15.5711L6.51813 16.4338ZM9.53819 19.4773L9.99046 18.0823L8.80363 17.221L10.2701 17.2201L10.7224 15.825L11.1764 17.2195L12.6429 17.2186L11.457 18.0813L11.911 19.4758L10.7241 18.6144L9.53819 19.4773ZM13.7442 21.6581L12.5583 22.5208L13.0105 21.1258L11.8237 20.2645L13.2901 20.2635L13.7425 18.8685L14.1965 20.263L15.663 20.2621L14.4771 21.1248L14.9311 22.5192L13.7442 21.6581ZM15.5784 25.5642L16.0306 24.1693L14.8438 23.3079L16.3103 23.307L16.7626 21.912L17.2166 23.3065L18.683 23.3055L17.4972 24.1682L17.9512 25.5627L16.7643 24.7014L15.5784 25.5642Z" fill="#0052B4"/>
</g>
<defs>
<clipPath id="clip0_59_13919">
<rect width="28" height="28" fill="white" transform="translate(0.375)"/>
</clipPath>
</defs>
</svg>
