<svg width="29" height="28" viewBox="0 0 29 28" fill="none" xmlns="http://www.w3.org/2000/svg">
<g clip-path="url(#clip0_59_13908)">
<path d="M22.7917 19.7167C24.2093 19.4288 25.4695 18.6245 26.3275 17.4597C27.1854 16.295 27.58 14.8531 27.4347 13.4138C27.2893 11.9745 26.6143 10.6406 25.5407 9.67096C24.4672 8.70135 23.0716 8.16524 21.625 8.16669H20.155C19.7685 6.67023 19.0164 5.29318 17.9662 4.15917C16.9161 3.02517 15.6007 2.16971 14.1383 1.6696C12.6759 1.16949 11.1121 1.04038 9.58749 1.29387C8.06285 1.54735 6.62502 2.1755 5.40309 3.12192C4.18117 4.06833 3.2134 5.30338 2.58668 6.71619C1.95995 8.12899 1.69389 9.67532 1.81238 11.2163C1.93087 12.7574 2.4302 14.2449 3.26555 15.5452C4.10089 16.8456 5.24609 17.9182 6.59834 18.6667M15.7917 12.8334L11.125 19.8334H18.125L13.4583 26.8334" stroke="#7F56D9" stroke-width="2.33333" stroke-linecap="round" stroke-linejoin="round"/>
</g>
<defs>
<clipPath id="clip0_59_13908">
<rect width="28" height="28" fill="white" transform="translate(0.625)"/>
</clipPath>
</defs>
</svg>
