<svg width="29" height="28" viewBox="0 0 29 28" fill="none" xmlns="http://www.w3.org/2000/svg">
<path fill-rule="evenodd" clip-rule="evenodd" d="M11.3819 4.37606C6.59917 4.30575 2.625 7.73471 2.625 11.7788C2.625 14.1132 3.75033 16.1383 5.92865 17.6251C5.92865 17.6251 5.13029 20.1957 5.14164 20.2472C5.153 20.2988 5.32675 20.4001 5.38722 20.367C5.44769 20.3339 8.27319 18.69 8.27319 18.69C10.2981 19.3681 11.5333 19.2013 11.7442 19.1728C11.7588 19.1708 11.7685 19.1695 11.7732 19.1692C11.5571 18.5518 11.4155 17.5905 11.5767 16.6845C12.4209 11.9427 17.3969 10.4677 20.124 10.7197C19.3709 7.29519 16.0998 4.44538 11.3819 4.37606ZM8.0576 8.26806C7.43019 8.26806 6.92169 8.76433 6.92169 9.37658C6.92169 9.98883 7.43019 10.4851 8.0576 10.4851C8.68501 10.4851 9.19364 9.98883 9.19364 9.37658C9.19364 8.76433 8.68501 8.26806 8.0576 8.26806ZM14.9347 8.26806C14.3074 8.26806 13.7988 8.76433 13.7988 9.37658C13.7988 9.98883 14.3074 10.4851 14.9347 10.4851C15.5621 10.4851 16.0708 9.98883 16.0708 9.37658C16.0708 8.76433 15.5622 8.26806 14.9347 8.26806Z" fill="#31CE6F"/>
<path fill-rule="evenodd" clip-rule="evenodd" d="M27.125 17.406C27.125 13.9414 23.691 11.2877 19.7071 11.2877C15.4889 11.2877 12.1245 14.0014 12.1245 17.4657C12.1245 20.9363 15.3246 23.8096 19.712 23.8331C20.595 23.8379 21.9103 23.6164 22.7972 23.2549C22.7972 23.2549 24.9173 24.5092 25.0361 24.4999C25.1548 24.4906 25.2156 24.3989 25.2203 24.3203C25.225 24.2416 24.5448 22.2839 24.5448 22.2839C26.3653 20.8929 27.125 19.3602 27.125 17.406ZM16.9307 14.1623C16.3757 14.1623 15.9257 14.6021 15.9257 15.1448C15.9257 15.6872 16.3757 16.1271 16.9307 16.1271C17.4858 16.1271 17.9357 15.6873 17.9357 15.1448C17.9357 14.6021 17.4858 14.1623 16.9307 14.1623ZM22.3049 14.1623C21.7498 14.1623 21.2999 14.6021 21.2999 15.1448C21.2999 15.6872 21.7498 16.1271 22.3049 16.1271C22.8601 16.1271 23.31 15.6873 23.31 15.1448C23.31 14.6021 22.8601 14.1623 22.3049 14.1623Z" fill="#31CE6F"/>
</svg>
